<?xml version="1.0" encoding="UTF-8"?>
<svg version="1.1" xmlns="http://www.w3.org/2000/svg" width="256" height="256">
<path d="M0 0 C10.23 0 20.46 0 31 0 C31.33 12.87 31.66 25.74 32 39 C35.3 37.02 38.6 35.04 42 33 C54.64204868 29.13715179 66.93991 30.74445726 78.75 36.625 C88.92123405 42.57531848 94.12330475 51.52059235 98.25 62.25 C101.15173414 76.7586707 100.36012931 90.92108478 93 104 C86.44295455 113.05440392 77.67241336 120.50301733 66.41796875 122.75390625 C53.43554764 124.0752189 41.86746439 123.71052938 31.3984375 115.20703125 C30.93695313 114.80871094 30.47546875 114.41039062 30 114 C29.67 116.64 29.34 119.28 29 122 C19.43 122 9.86 122 0 122 C0 81.74 0 41.48 0 0 Z M35 61 C30.12328277 67.38821439 29.20644701 74.18741491 30 82 C31.71714107 88.78025417 34.12984616 93.16643015 40 97 C44.1626183 99.30039432 48.33177648 99.56907868 53 99 C59.39608557 96.94024363 63.15703565 93.89608683 66.75 88.25 C69.54870825 80.97335854 69.80633053 73.34598285 67 66 C64.13440066 61.68720099 60.94461736 57.84753753 56 56 C48.04196752 54.99998269 40.93740722 55.15033771 35 61 Z " fill="#D2D2D2" transform="translate(81,66)"/>
<path d="M0 0 C4.9022701 2.2361232 7.69776725 5.12989225 10 10 C10.77379561 15.29813119 10.67768515 19.56643525 8.375 24.4375 C4.82646605 28.26618137 1.77100064 30.53218851 -3.3125 31.875 C-9.27887919 32.07725014 -14.05245692 31.48182626 -18.875 27.8125 C-22.32559006 23.24554257 -24.32807012 19.28352697 -24.0625 13.5 C-23.29410666 8.50544331 -20.81255459 5.22326044 -17 2 C-11.94447518 -1.27896295 -5.77586366 -0.57542851 0 0 Z " fill="#D0353B" transform="translate(208,159)"/>
</svg>
